<?xml version="1.0" encoding="UTF-8"?>
<svg id="Layer_2" data-name="Layer 2" xmlns="http://www.w3.org/2000/svg" viewBox="0 0 464.44 481.45">
  <defs>
    <style>
      .cls-1 {
        fill: #fff;
      }
    </style>
  </defs>
  <g id="Layer_1-2" data-name="Layer 1">
    <g>
      <path class="cls-1" d="M93.22,305.32c7.12-6.13,10.17-13.76,13.19-21.48,20.43-52.24,40.91-104.45,61.4-156.67,.43-1.09,.44-2.93,1.88-2.89,1.36,.04,1.39,1.86,1.82,2.95,20.91,53.39,41.8,106.79,62.68,160.19,2.11,5.39,4.66,10.51,8.56,14.85,.65,.72,1.33,1.85,2.39,1.52,1.21-.38,.73-1.72,.73-2.64,0-27.37,0-54.74-.07-82.12,0-3.8-.77-7.47-2.84-10.73-1.06-1.66-1.33-2.74,1.22-2.73,6.74,.02,13.49,0,20.23,.01,1.75,0,2.32,.59,1.21,2.23-2.26,3.33-2.99,7.12-3,11.04-.05,23.62-.04,47.25-.13,70.87-.01,2.99,1.22,3.89,4.04,3.88,29.98-.06,59.95-.07,89.93,.02,3.3,0,4.32-1.24,4.31-4.43-.1-22.62-.06-45.25-.09-67.87,0-4.78-.32-9.51-3.21-13.63-1.3-1.85-.09-2.11,1.38-2.12,6.74-.01,13.49,0,20.23,0,2.19,0,2.26,.9,1.18,2.5-2.24,3.34-2.94,7.13-2.95,11.06-.02,51.5-.02,102.99,0,154.49,0,4.3,.79,8.46,3.17,12.16,1.16,1.8,.51,2.47-1.41,2.47-6.74,0-13.49,0-20.23,0-1.95,0-2.55-.66-1.38-2.45,2.49-3.81,3.16-8.1,3.16-12.54,.03-24,.02-48,.12-71.99,.01-3.01-1.21-3.83-4.04-3.82-30.1,.07-60.2,.07-90.3,0-2.93,0-3.94,.97-3.93,3.9,.1,24.12,.09,48.25,.12,72.37,0,4.19,.79,8.22,2.97,11.85,1.1,1.83,.98,2.71-1.38,2.7-6.62-.03-13.24-.02-19.86,0-1.92,0-3.01-.42-1.64-2.57,2.5-3.94,3.16-8.37,3.16-12.92,.03-21-.02-42,.1-62.99,.02-3.12-1.04-4.15-4.12-4.05-6.24,.18-12.49,.03-18.73,.06-1.99,.01-2.94-.27-2.33-2.78,1.11-4.57-.49-8.95-2.07-13.14-4.51-11.92-9.27-23.74-13.81-35.64-.89-2.32-2.12-3.25-4.67-3.24-24.6,.09-49.21,.08-73.81,.01-2.34,0-3.63,.75-4.49,2.97-4.53,11.78-9.27,23.47-13.75,35.26-1.76,4.65-3.42,9.42-2.15,14.57,.31,1.25-.3,1.92-1.56,1.92-3.45-.02-6.92,.35-11.23-.41Zm70.18-156.97c-.67,1.34-.93,1.75-1.11,2.2-12.04,30.83-24.07,61.66-36.09,92.49-1.49,3.83-1.41,3.97,2.68,3.98,22.85,.02,45.7,.02,68.55,0,4.44,0,4.56-.21,2.88-4.49-8.91-22.8-17.84-45.59-26.76-68.38-3.27-8.34-6.56-16.68-10.14-25.8Z"/>
      <path class="cls-1" d="M28.91,205.68c1.88-3.68,.99-7.23,.62-10.96-.83-8.32-1.29-16.69-.88-25.08,.98-19.78,3.73-39.26,9.56-58.24,2.02-6.57,4.15-13.1,6.8-19.45,.54-1.29,.84-3.26,2.91-2.73,1.81,.46,1.91,2.22,1.73,3.72-1.7,14.46,.91,28.96-.43,43.44-.43,4.7-.93,9.4-1.21,14.2,3.42-4.1,7.61-7.3,6.17-14.18-1.87-8.97,1.41-17.53,5.04-25.72,3.5-7.88,6.79-15.87,10.7-23.54,7.54-14.78,10.27-30.68,11.76-46.93,.19-2.11,.47-4.22,.71-6.33,.15-1.34,.57-2.59,2.17-2.52,1.33,.06,1.81,1.18,2,2.36,.64,4.07,1.37,8.13,1.88,12.21,1.66,13.15,2.86,26.32,1.17,39.58-.65,5.14-2.42,9.93-3.89,14.96,4.82-6.15,12.97-9.18,14.45-18.55,1.86-11.79,8.62-21.01,17.84-28.62,13.93-11.49,28.99-21.28,44.44-30.52,8.16-4.88,14.69-11.15,18.24-20.17,.53-1.35,1.11-3.16,3.1-2.48,1.93,.65,1.33,2.4,1.06,3.86-2.95,16.23-11.51,29.07-23.88,39.61-8.12,6.92-17.24,12.37-26.37,17.79-1.28,.76-2.52,1.57-3.5,2.91,1.63-.9,3.26-1.78,4.88-2.7,26.51-15.1,54.95-24.5,85.27-27.54,46.19-4.64,89.79,4.28,130.17,27.32,44.16,25.19,75.82,61.76,95.74,108.42,9.38,21.98,14.66,45.02,16.54,68.9,3.45,43.88-5.04,85.24-25.27,124.24-.88,1.7-1.48,4.99-4.12,3.67-2.72-1.36-.39-3.8,.49-5.48,13.24-25.32,21.62-52.17,24.38-80.57,3.79-39.02-1.68-76.76-17.61-112.75-19.77-44.65-50.88-79.17-93.27-103.34-22.91-13.06-47.51-21.32-73.66-25.05-34.77-4.96-68.71-1.66-101.83,9.89-20.91,7.29-40.09,17.92-57.83,31.16-.57,.43-1.15,.85-1.5,1.61,13.35-2.24,26.65-2.63,39.93-3.08,8.96-.3,17.95,.03,26.92-.03,7.09-.05,13.45-2.44,19.24-6.44,.41-.28,.8-.6,1.23-.86,1.18-.74,2.46-1.65,3.65-.18,1.02,1.25,.16,2.42-.72,3.31-2.46,2.48-4.86,5.06-7.55,7.27-10.78,8.86-23.41,13-37.13,14.48-13.59,1.46-27.2,.38-40.8,.59-9.4,.15-18.29,2.17-26.89,5.8-2.01,.85-3.59,2.18-5.12,3.69-7.88,7.75-13.67,17.12-20.04,26.11,9.62-7.58,19.91-14.07,30.89-19.42,9.45-4.6,19.21-8.42,29.45-10.9,1.33-.32,2.78-.79,3.8,.55,.85,1.11,.24,2.19-.56,3.03-12.96,13.62-26.07,27.01-44.1,34.08-7.9,3.1-15.71,6.43-23.6,9.57-6.54,2.6-11.14,6.74-14.02,13.51-5.19,12.21-10.02,24.5-13.39,37.35-.22,.82-.76,1.61-.17,2.73,2.66-3.7,5.13-7.4,7.88-10.89,5.57-7.09,12.19-13.23,18.4-19.73,7.2-7.53,13.93-15.37,18.23-25,.55-1.23,1.12-2.74,2.87-2.44,1.74,.29,1.8,1.93,2.01,3.24,1.87,11.81-1.51,22.49-7.14,32.67-5.77,10.45-14.15,18.67-22.72,26.73-5.09,4.79-10.02,9.78-15.28,14.39-8.01,7.02-11.27,15.71-11.39,26.32-.43,38.65,6.62,75.56,24.59,110.02,24.48,46.95,60.84,81.19,109.59,102.08,20.85,8.93,42.63,13.99,65.19,15.81,31.33,2.53,61.74-1.7,91.26-12.48,1.84-.67,4.58-2.59,5.58,.09,1.17,3.14-2.44,3.09-4.29,3.79-28.21,10.67-57.45,14.92-87.48,13.25-37.79-2.1-72.89-13.19-104.65-33.82-54.1-35.16-87.1-84.84-99.85-148-3.35-16.57-4.42-33.42-3.89-50.33,.08-2.59-.35-4.86-1.96-7.01-10.23-13.65-14.36-29.48-16.18-46.1-1.74-15.88-2.08-31.9-4.97-47.66-.26-1.43-.75-3.27,.85-4.1,1.74-.9,2.67,.86,3.58,1.95,14.49,17.21,23.58,36.65,24.2,59.65Zm-5.37,32.04c2.97-29.96,2.72-58.37-17.87-83.25,.54,5.32,1.06,9.84,1.46,14.37,1.1,12.4,1.57,24.87,3.84,37.15,2.05,11.1,5.52,21.68,12.57,31.73Zm56.33-81.54c-7.21,11.05-16.59,20.05-25.71,29.27-4.75,4.8-9.18,9.89-13,15.47-4.48,6.54-7.5,13.7-9.29,22.4,7.25-7.79,14.53-14.07,21.57-20.6,7.34-6.82,14.2-14.06,19.31-22.77,4.29-7.31,7.03-15.1,7.11-23.75Zm4.44-104.07c-1.23,19.13-10.11,35.01-17.46,51.44-3.21,7.16-6.61,14.27-8.26,22.02-.61,2.88-.87,5.77-.25,8.92,20.84-23.61,33.68-49.42,25.97-82.38Zm103.49,30.52c-8.21,1.26-16.39,.85-24.61,.54-11.84-.45-23.68,.49-35.47,1.49-9.59,.82-19.14,2.23-27.17,8.34-.98,.74-2.21,1.31-2.83,3.07,9.92-3.12,19.61-3.16,29.35-3.07,12.46,.11,24.95,.76,37.33-1.42,8.37-1.47,16.36-3.93,23.4-8.95Zm-12.81-63.26c-4.49,3.15-8.97,6.2-13.6,9.05-14.89,9.14-29.64,18.51-42.93,29.96-6.13,5.28-10.72,11.63-12.66,19.72,10.35-11.46,23.9-18.34,36.68-26.27,7.34-4.56,14.28-9.62,20.55-15.57,5.08-4.82,9.16-10.37,11.95-16.89Zm-54.03,89.18c-24.36,7.67-45.16,20.15-63.58,38.21,23.72-9.16,47.27-16.95,63.58-38.21ZM33.32,186.17c9.59-20.87,15.09-61.32,11.16-80.95-8.69,26.19-12.48,52.78-11.16,80.95Z"/>
      <path class="cls-1" d="M405.89,411.35c-.06,2.95-2.32,5.28-5.14,5.25-2.93-.02-5.22-2.61-5.08-5.73,.14-2.97,2.44-5.11,5.36-4.98,2.95,.13,4.92,2.34,4.86,5.46Z"/>
      <path class="cls-1" d="M339.63,451.02c2.7,.08,5.19,2.68,5.18,5.39-.01,2.98-2.62,5.47-5.56,5.3-2.81-.16-5.06-2.65-4.96-5.5,.1-2.75,2.69-5.28,5.34-5.2Z"/>
      <path class="cls-1" d="M424.68,386.59c-2.92-.05-5.16-2.62-5.02-5.76,.13-2.99,2.4-5.08,5.35-4.94,2.92,.14,4.95,2.43,4.85,5.47-.1,2.97-2.39,5.29-5.17,5.24Z"/>
      <path class="cls-1" d="M377.33,436.66c-.03,2.8-2.48,5.22-5.24,5.2-2.82-.02-5.17-2.37-5.23-5.23-.06-3.02,2.38-5.39,5.45-5.31,2.89,.08,5.06,2.38,5.02,5.33Z"/>
    </g>
  </g>
</svg>