<?xml version="1.0" encoding="UTF-8" standalone="no"?><svg xmlns="http://www.w3.org/2000/svg" xmlns:xlink="http://www.w3.org/1999/xlink" fill="#000000" height="501.8" preserveAspectRatio="xMidYMid meet" version="1" viewBox="-5.1 -5.1 497.1 501.8" width="497.1" zoomAndPan="magnify"><g id="change1_1"><path d="M470.4316,52.5815c21.5635-5.9653,20.8286-18.7598,20.7808-19.3481l-0.0952-1.1792l-1.1748-0.1348 c-17.9512-2.0698-26.1021,14.9204-27.8662,19.2261h-32.5405c17.1094-7.356,16.4365-18.9082,16.3882-19.5039l-0.0942-1.1792 l-1.1753-0.1348c-19.1274-2.2168-28.5381,14.5518-31.3589,20.8179h-43.7573c25.3105-8.23,24.4165-23.7905,24.356-24.5352 l-0.0938-1.1787l-1.1758-0.1348c-24.2554-2.7764-35.0308,20.7349-37.0752,25.8486h-47.8916 c32.7358-9.792,31.6089-29.3579,31.5352-30.2759l-0.0938-1.1782l-1.1753-0.1348c-29.7407-3.4209-42.7827,25.8032-45.0586,31.5889 h-52.1182c48.7676-13.0103,47.1338-41.127,47.0303-42.4111l-0.0938-1.1802l-1.1763-0.1333 c-41.46-4.7461-59.2593,36.8433-61.9072,43.7246h-55.1987c58.1465-14.8276,56.2319-47.8984,56.1123-49.3965l-0.0942-1.1782 l-1.1763-0.1353c-48.2012-5.5225-68.7383,43.1548-71.6211,50.71H56.9268c5.4565-7.5664,15.1143-25.0918,3.3276-42.4058l-0.666-0.979 l-1.0879,0.4648c-0.7744,0.3315-18.5,8.3872-8.2314,43.229C14.1782,44.2915,7.7861,62.8667,7.5293,63.6719l-0.3594,1.1279 l1.0371,0.5703c5.2695,2.8926,10.3887,4.0269,15.1748,4.0269c12.7759,0,23.1797-8.0728,27.7622-12.314v93.668 c-7.5532,2.8823-56.2344,23.4224-50.708,71.6206l0.1353,1.1743l1.1792,0.0957c0.123,0.0098,0.4575,0.0303,0.9775,0.0303 c5.8184,0,34.8062-2.7632,48.416-56.1436v55.2012c-6.8794,2.644-48.4756,20.4346-43.7227,61.9072l0.1353,1.1748l1.1787,0.0957 c0.1074,0.0083,0.3984,0.0264,0.8516,0.0264c5.0029,0,29.6333-2.374,41.5571-47.1152v52.1772 c-5.7813,2.2778-35.0005,15.3247-31.5903,45.0537l0.1353,1.1748l1.1792,0.0952c0.0791,0.0059,0.2954,0.0195,0.6318,0.0195 c3.5776,0,20.6943-1.6392,29.644-31.564v45.9365c-5.1138,2.0425-28.6309,12.8169-25.8491,37.0767l0.1348,1.1748l1.1792,0.0957 c0.0654,0.0039,0.2466,0.0166,0.5273,0.0166c2.9053,0,16.5039-1.2827,24.0078-24.3525v41.4683 c-5.6108,2.4038-23.7803,11.7817-21.5,31.6567l0.1353,1.1748l1.1792,0.0957c0.0566,0.0044,0.2148,0.0137,0.4604,0.0137 c2.3945,0,13.103-1.0098,19.7251-18.0825v45.4771c-4.3052,1.7686-21.2813,9.9297-19.2241,27.8691l0.1353,1.1743l1.1792,0.0952 c0.0498,0.0044,0.1899,0.0127,0.4067,0.0127c2.3203,0,13.4873-1.0645,18.9419-20.7754c5.457,19.7124,16.623,20.7754,18.9414,20.7754 c0.2173,0,0.3569-0.0083,0.4067-0.0127l1.1797-0.0952l0.1348-1.1743c2.0605-17.9395-14.9189-26.1006-19.2241-27.8691v-49.1748 c6.4175,20.6353,18.457,21.7803,21.0122,21.7803c0.2451,0,0.4033-0.0093,0.4604-0.0137l1.1792-0.0957l0.1353-1.1748 c2.5088-21.874-19.7622-31.0381-22.7871-32.1777v-40.9458c7.5049,23.0713,21.103,24.3511,24.0063,24.3511 c0.2813,0,0.4619-0.0127,0.5273-0.0166l1.1797-0.0957l0.1348-1.1748c2.7817-24.2598-20.7344-35.0322-25.8481-37.0767v-45.939 c8.9517,29.9287,26.0708,31.5684,29.647,31.5664c0.3359,0,0.5527-0.0137,0.6313-0.0195l1.1797-0.0952l0.1348-1.1748 c3.4072-29.729-25.8115-42.7759-31.5928-45.0537v-52.1772c11.9248,44.7456,36.5547,47.1167,41.5542,47.1152 c0.4526,0,0.7446-0.0181,0.8516-0.0264l1.1797-0.0957l0.1348-1.1748c4.7524-41.4727-36.8413-59.2632-43.7202-61.9072v-55.2012 c13.6123,53.3838,42.6035,56.1455,48.4194,56.1436c0.519,0,0.8545-0.0205,0.9766-0.0303l1.1797-0.0957l0.1348-1.1743 c5.521-48.1982-43.1572-68.7383-50.7104-71.6206V57.9287L90.314,92.4385l-0.3638-0.022l11.5771,57.0161 c-4.3726,1.377-7.5532,5.4678-7.5532,10.2915c0,5.9482,4.8394,10.7881,10.7871,10.7881c5.9492,0,10.7896-4.8398,10.7896-10.7881 c0-5.9487-4.8403-10.7881-10.7896-10.7881c-0.1333,0-0.2622,0.0151-0.394,0.0195L93.5171,95.5239l0.0439,0.0024l25.1392,23.9058 l11.0684,51.1533l2.8125-0.6099l-10.1738-47.0186l29.8467,28.3823l6.5693,30.3696c-0.144-0.0059-0.2856-0.021-0.4312-0.021 c-4.9722,0-9.0171,4.043-9.0171,9.0132c0,4.9717,4.0449,9.0166,9.0171,9.0166c4.9707,0,9.0151-4.0449,9.0151-9.0166 c0-3.7192-2.2666-6.918-5.4897-8.2935l-5.958-27.5449l39.6777,37.7314c-1.8599,1.9395-3.0103,4.5635-3.0103,7.4575 c0,5.9497,4.8398,10.791,10.7896,10.791c5.9478,0,10.7866-4.8413,10.7866-10.791c0-5.9502-4.8389-10.79-10.7866-10.79 c-2.0117,0-3.8892,0.5635-5.5034,1.5264l-40.2969-38.3203l25.7021,4.0063c0.4063,5.5806,5.0649,9.9976,10.7471,9.9976 c5.9497,0,10.7896-4.8374,10.7896-10.7842c0-5.9497-4.8398-10.7896-10.7896-10.7896c-5.23,0-9.5991,3.7427-10.5791,8.6904 l-29.5308-4.6021l-27.3613-26.0176l42.5459,6.627l0.4429-2.8433l-46.6494-7.2651L98.0322,95.8076l48.8848,3.0825 c0.6572,4.3296,4.3926,7.6621,8.9014,7.6621c4.9717,0,9.0166-4.0444,9.0166-9.0166c0-4.9717-4.0449-9.0166-9.0166-9.0166 c-4.4497,0-8.1465,3.2437-8.875,7.4907l-52.1587-3.2891L54.4238,54.3408c0.0806-0.0928,0.1753-0.2056,0.27-0.3179h97.9297 c2.6973,7.0806,21.228,51.1431,64.1255,51.1431c2.4189,0,4.9194-0.1406,7.4941-0.4355l1.1763-0.1353l0.0942-1.1787 c0.1196-1.4976,2.0342-34.5664-56.1118-49.3936h55.1978c2.5078,6.5229,18.5688,44.0972,55.4214,44.0972 c2.0928,0,4.2583-0.1221,6.4863-0.3779l1.1763-0.1348l0.0938-1.1787c0.1035-1.2842,1.7373-29.3989-47.0254-42.4058h52.1138 c2.1426,5.4424,13.9097,31.8647,40.3184,31.8647c1.5288,0,3.1113-0.0884,4.7388-0.2754l1.1763-0.1353l0.0938-1.1782 c0.0737-0.918,1.2007-20.4839-31.5352-30.2759h47.8911c1.9287,4.8301,11.6445,26.0752,33.1587,26.0752 c1.2637,0,2.5718-0.0747,3.9175-0.229l1.1753-0.1348l0.0938-1.1792c0.0605-0.7441,0.9546-16.3022-24.356-24.5322h43.833 l-1.0195,0.3428c0.0825,0.2461,8.0972,23.3228,28.9243,23.3228c1.0908,0,2.2168-0.063,3.3779-0.1968l1.1758-0.1348l0.0942-1.1787 c0.0537-0.6743,0.8955-15.3755-24.126-22.1553h40.2803c1.6699,4.0659,9.0244,19.395,24.9063,19.395 c0.9551,0,1.9414-0.0566,2.9575-0.1733l1.1753-0.1343l0.0952-1.1792C491.2603,71.3428,491.9951,58.5469,470.4316,52.5815z M10.751,63.4536c1.9102-3.7017,10.2441-14.9565,39.1602-9.1509C44.9312,59.1367,28.8384,72.4707,10.751,63.4536z M10.1475,283.0186 c-3.3506-36.7197,32.1396-53.5791,40.9478-57.1772C41.603,278.0996,15.9614,282.6675,10.1475,283.0186z M22.2861,334.438 c-2.1187-25.5425,21.4297-37.2944,28.7012-40.2983C44.188,330.4595,27.0063,334.1274,22.2861,334.438z M28.0303,387.1587 c-1.5-20.0522,16.5635-29.5649,22.8994-32.2681C45.4565,383.374,32.1211,386.7915,28.0303,387.1587z M34.6631,493.7305 c-0.8027-13.7905,11.1274-20.6787,16.1924-22.9683C46.9126,490.2798,37.9282,493.291,34.6631,493.7305z M70.5034,493.729 c-3.2764-0.4424-12.2505-3.4629-16.1924-22.9668C59.3755,473.0518,71.3071,479.9399,70.5034,493.729z M74.0684,437.2002 c-3.6558-0.4092-14.5264-3.6274-19.1436-27.043C60.5474,412.6929,75.1401,420.8818,74.0684,437.2002z M77.1348,387.1401 c-4.0674-0.4253-17.4561-4.0039-22.8931-32.2227C60.5322,357.6777,78.582,367.3643,77.1348,387.1401z M82.8813,334.437 c-4.7319-0.312-21.896-3.9888-28.6982-40.2705C61.3945,297.2329,84.9458,309.2393,82.8813,334.437z M95.0151,283.0186 c-5.8242-0.3525-31.4531-4.9282-40.9443-57.1772C62.8779,229.4395,98.3657,246.2969,95.0151,283.0186z M104.7612,151.8125 c4.3628,0,7.9121,3.5488,7.9121,7.9116c0,4.3618-3.5493,7.9106-7.9121,7.9106c-4.3618,0-7.9097-3.5488-7.9097-7.9106 C96.8516,155.3613,100.3994,151.8125,104.7612,151.8125z M164.5298,190.7012c0,3.3853-2.7534,6.1392-6.1377,6.1392 c-3.3853,0-6.1396-2.7539-6.1396-6.1392c0-3.3838,2.7544-6.1357,6.1396-6.1357 C161.7764,184.5654,164.5298,187.3174,164.5298,190.7012z M203.4165,192.1392c4.3613,0,7.9097,3.5508,7.9097,7.9126 c0,4.3633-3.5483,7.9141-7.9097,7.9141c-4.3628,0-7.9126-3.5508-7.9126-7.9141 C195.5039,195.6899,199.0537,192.1392,203.4165,192.1392z M194.0654,147.7754c4.3628,0,7.9121,3.5498,7.9121,7.9121 c0,4.3594-3.5493,7.9067-7.9121,7.9067c-4.3618,0-7.9102-3.5474-7.9102-7.9067 C186.1553,151.3252,189.7036,147.7754,194.0654,147.7754z M155.8184,91.3965c3.3848,0,6.1392,2.7529,6.1392,6.1392 s-2.7544,6.1392-6.1392,6.1392c-3.3843,0-6.1367-2.7529-6.1367-6.1392S152.4341,91.3965,155.8184,91.3965z M3.1611,220.7627 c-4.1157-43.4595,38.4268-63.0859,47.9971-66.9297C40.0625,215.6558,9.5508,220.4482,3.1611,220.7627z M32.3828,437.2012 c-1.1084-16.5381,13.4951-24.5869,19.1504-27.0713C46.915,433.584,36.0288,436.7954,32.3828,437.2012z M52.583,225.6997 l-0.7837-0.1406c0.3271-0.1274,0.5811-0.2246,0.7837-0.2988c0.2021,0.0742,0.4565,0.1714,0.7827,0.2988L52.583,225.6997z M52.583,154.0381l-1.3379-0.2402c0.5864-0.2344,1.0308-0.4028,1.3379-0.5156c0.3062,0.1128,0.751,0.2813,1.3369,0.5156 L52.583,154.0381z M102.0068,220.7686c-6.3896-0.2808-36.8696-4.9312-47.999-66.9355 C63.5776,157.6768,106.1235,177.3032,102.0068,220.7686z M53.2197,51.3281c-8.5571-28.2627,1.8774-37.6289,5.3706-39.8755 C69.4487,28.8188,57.6206,45.9419,53.2197,51.3281z M216.793,2.8799c1.8984,0,3.8506,0.0913,5.8486,0.2798 c-0.2803,6.3867-4.9307,36.8672-66.9385,48.0005C159.3628,42.0293,177.3657,2.8799,216.793,2.8799z M155.1543,52.584h-0.001 c0.1128-0.3076,0.2813-0.7524,0.5171-1.3428l0.2407,1.3428l-0.2402,1.3408C155.4351,53.3369,155.2676,52.8906,155.1543,52.584z M222.6348,102.0059c-43.4463,4.1138-63.0874-38.4268-66.9297-47.9971C217.5269,65.1074,222.3218,95.6167,222.6348,102.0059z M280.0786,9.9243c1.5659,0,3.1743,0.0728,4.8188,0.2222c-0.3169,5.8135-4.7368,31.4243-57.186,40.9497 C231.1489,42.6826,246.6826,9.9243,280.0786,9.9243z M227.4287,53.3687c-0.1279-0.3281-0.2246-0.582-0.2988-0.7847 c0.0742-0.2021,0.1709-0.4561,0.2988-0.7842l0.1406,0.7842L227.4287,53.3687z M284.8901,95.0166 c-36.7271,3.3564-53.5801-32.1372-57.1787-40.9443C279.9727,63.562,284.5386,89.2031,284.8901,95.0166z M336.311,82.8809 c-25.5132,2.0952-37.2964-21.4287-40.2998-28.7002C332.3345,60.98,336.001,78.1606,336.311,82.8809z M296.0371,50.9844 c2.939-6.9126,14.0835-28.8247,37.1807-28.8247c1.0015,0,2.0273,0.041,3.0737,0.1265 C335.9033,26.9697,331.9941,44.2363,296.0371,50.9844z M390.9946,77.1353c-20.0313,1.4775-29.5635-16.5615-32.2666-22.8975 C387.207,59.71,390.6265,73.043,390.9946,77.1353z M358.728,50.9307c2.5962-6.0845,11.4702-22.9868,29.9341-22.9868 c0.7539,0,1.5288,0.0278,2.3149,0.0869C390.5508,32.0981,386.9692,45.4966,358.728,50.9307z M443.0078,74.7539 c-16.5425,1.124-24.5898-13.4971-27.0732-19.1533C439.3872,60.2202,442.6006,71.1079,443.0078,74.7539z M415.9346,52.2148 c2.3931-5.4512,9.9551-19.209,25.3008-19.209c0.5747,0,1.1597,0.0195,1.7568,0.0586 C442.5386,36.6934,439.2129,47.624,415.9346,52.2148z M487.021,34.6265c0.4087,0,0.8232,0.0117,1.2437,0.0356 c-0.4751,3.2524-3.5645,12.2573-22.9258,16.187C467.6016,45.9658,474.2349,34.6265,487.021,34.6265z M465.3125,54.311 c19.5117,3.9434,22.5259,12.9268,22.9658,16.1919C474.4766,71.3496,467.6021,59.3755,465.3125,54.311z" fill="#414042"/></g></svg>