<svg xmlns="http://www.w3.org/2000/svg" xmlns:xlink="http://www.w3.org/1999/xlink" viewBox="0,0,256,256" width="64px" height="64px" fill-rule="nonzero"><g fill="#fffefe" fill-rule="nonzero" stroke="none" stroke-width="1" stroke-linecap="butt" stroke-linejoin="miter" stroke-miterlimit="10" stroke-dasharray="" stroke-dashoffset="0" font-family="none" font-weight="none" font-size="none" text-anchor="none" style="mix-blend-mode: normal"><g transform="scale(4,4)"><path d="M32.5,7c-12.96643,0 -23.5,10.53256 -23.5,23.5c0,4.17223 1.14112,8.06917 3.05078,11.4668l-2.0332,10.84961c-0.06341,0.34151 0.05491,0.69146 0.31255,0.92441c0.25764,0.23295 0.61771,0.31554 0.95112,0.21817l9.92578,-2.91992c3.35834,1.85092 7.19062,2.96094 11.29297,2.96094c6.769,0 13.12453,-2.67963 17.23633,-7.52734c1.9526,-2.30272 3.1728,-5.54355 3.36328,-9.3418c0.07276,-0.13168 0.17836,-0.23933 0.24805,-0.37305c2.48604,-4.77033 2.92306,-10.83487 -0.125,-17.34766c-0.00798,-0.01716 -0.01645,-0.0341 -0.02539,-0.05078c-3.9703,-7.36088 -11.75767,-12.35937 -20.69727,-12.35937zM32.5,9c8.18542,0 15.28654,4.57001 18.92188,11.29102c2.15295,4.61708 2.36924,8.7953 1.36133,12.41406c-0.17535,-0.98832 -0.26181,-1.94292 -0.5957,-2.98828c-0.10878,-0.34061 -0.39104,-0.59729 -0.74042,-0.67332c-0.34938,-0.07603 -0.71278,0.04014 -0.95327,0.30473c-0.24049,0.2646 -0.32152,0.63741 -0.21255,0.97796c0.71915,2.25151 0.90018,4.25184 0.87695,6.13281c-2.22266,3.82429 -5.91389,6.7224 -10.04102,8.18359c-4.00162,-1.31235 -8.53071,-3.19969 -12.31055,-6.59375c-3.81276,-3.42362 -6.86577,-8.36086 -7.89062,-15.87891c1.22865,-2.29544 3.17396,-4.1196 5.90234,-4.67187c1.64812,3.38096 3.08565,7.13736 3.30664,7.73828c-0.14442,0.13509 -0.13313,0.18046 -0.54102,0.41797c-0.72766,0.42372 -1.88168,0.88064 -3.60547,0.91797c-0.33349,0.00729 -0.6414,0.18037 -0.82096,0.46149c-0.17957,0.28111 -0.20716,0.63325 -0.07357,0.9389c1.85434,4.23242 5.67768,8.53521 10.13867,11.80078c0.31847,0.23315 0.74428,0.2572 1.08697,0.06137c0.34269,-0.19582 0.53816,-0.57488 0.49897,-0.96762c0,0 -0.1597,-2.43163 1.5957,-4.74805c2.50872,1.29616 5.73682,2.83522 6.82422,3.34766c-0.48548,0.74286 -0.99434,1.53175 -1.76758,2.17578c-0.29235,0.22291 -0.43883,0.58824 -0.38146,0.95137c0.05737,0.36313 0.30936,0.66551 0.65619,0.78743c0.34683,0.12192 0.73259,0.04372 1.00457,-0.20364c1.25055,-1.04158 2.33874,-2.33406 2.9375,-3.6582c0.22594,-0.49849 0.00921,-1.08601 -0.48633,-1.31836c0,0 -6.12029,-2.87705 -8.64062,-4.23437c-0.40078,-0.21611 -0.89695,-0.13422 -1.20703,0.19922c-1.49497,1.60961 -2.09954,3.34259 -2.35352,4.69531c-3.13404,-2.5754 -5.85098,-5.5619 -7.42578,-8.51562c1.24695,-0.21535 2.31954,-0.55073 3.02734,-0.96289c0.99309,-0.57828 1.5293,-1.23633 1.5293,-1.23633c0.21433,-0.272 0.2727,-0.63551 0.1543,-0.96094c0,0 -1.93479,-5.35172 -3.98633,-9.31836c-0.18991,-0.3677 -0.58668,-0.58045 -0.99805,-0.53516c-3.98241,0.44237 -6.78986,3.10052 -8.33398,6.1543c-0.08986,0.17785 -0.12455,0.37848 -0.09961,0.57617c1.02414,8.16131 4.41493,13.70475 8.61328,17.47461c4.19835,3.76986 9.16408,5.7865 13.35547,7.13867c0.2034,0.0655 0.42243,0.06413 0.625,-0.00391c3.43728,-1.15171 6.59616,-3.23467 9.06641,-5.9707c-0.54529,1.72782 -1.29365,3.28388 -2.30664,4.47852c-3.6882,4.34828 -9.46994,6.82031 -15.71094,6.82031c-3.91889,0 -7.58239,-1.0505 -10.74609,-2.88086c-0.2372,-0.13723 -0.52032,-0.17112 -0.7832,-0.09375l-8.6875,2.55469l1.78711,-9.52539c0.0445,-0.23753 0.00148,-0.48314 -0.12109,-0.69141c-1.87234,-3.18938 -2.94922,-6.89553 -2.94922,-10.86328c0,-11.88656 9.61443,-21.5 21.5,-21.5z"></path></g></g></svg>