<?xml version="1.0" encoding="UTF-8" standalone="no"?><svg xmlns="http://www.w3.org/2000/svg" xmlns:xlink="http://www.w3.org/1999/xlink" fill="#ffffff" height="861.7" preserveAspectRatio="xMidYMid meet" version="1" viewBox="55.6 39.3 845.4 861.7" width="845.4" zoomAndPan="magnify"><g><g id="change1_4"><path d="M500,901c-54.13,0-106.65-10.6-156.09-31.51c-47.75-20.2-90.64-49.11-127.46-85.94s-65.74-79.71-85.94-127.46 C109.6,606.65,99,554.13,99,500s10.6-106.65,31.51-156.09c20.2-47.75,49.11-90.64,85.94-127.46s79.71-65.74,127.46-85.94 C393.35,109.6,445.87,99,500,99s106.65,10.6,156.09,31.51c47.75,20.2,90.64,49.11,127.46,85.94s65.74,79.71,85.94,127.46 C890.4,393.35,901,445.87,901,500c0,68.27-17.46,135.69-50.5,194.96c-0.81,1.45-2.63,1.97-4.08,1.16 c-1.45-0.81-1.97-2.63-1.16-4.08C877.8,633.66,895,567.25,895,500c0-217.8-177.2-395-395-395S105,282.2,105,500s177.2,395,395,395 c48.7,0,96.24-8.75,141.3-26.02c1.55-0.59,3.28,0.18,3.88,1.73c0.59,1.55-0.18,3.28-1.73,3.88C597.69,892.11,549.43,901,500,901z" fill="inherit"/></g><g id="change1_11"><path d="M238.6,202.89c-0.33,0-0.65-0.05-0.98-0.16c-1.42-0.49-2.26-1.96-1.96-3.43c4.59-22.54,8.83-35.72,20.57-49.66 c0,0,0,0,0,0c7.03-8.35,15.8-15.25,23.47-21.06c19.41-14.72,39.92-28.46,60.95-40.83l3.01-1.77c9.23-5.4,18.78-10.98,26.42-18.37 c7.44-7.21,13.14-16.19,16.47-25.97c0.5-1.47,2.05-2.32,3.56-1.95c1.51,0.37,2.49,1.84,2.25,3.38 c-2.79,17.74-9.85,34.8-20.44,49.34c-15.88,21.8-39.12,37.27-61.86,50.74c-1.89,1.12-3.78,2.23-5.68,3.34 c-19.86,11.66-40.39,23.71-53.94,41.98c-0.84,1.13-1.77,2.3-2.72,3.51c-2.43,3.08-4.95,6.27-6.43,9.24 C240.77,202.27,239.71,202.89,238.6,202.89z M260.82,153.5c-8.27,9.82-12.49,19.06-15.98,32.43c0.27-0.35,0.53-0.69,0.78-1.03 c14.28-19.26,35.35-31.62,55.73-43.58c1.89-1.11,3.78-2.22,5.66-3.33c22.19-13.15,44.83-28.19,60.07-49.11 c5.19-7.13,9.49-14.89,12.79-23.06c-1.75,2.14-3.62,4.18-5.61,6.1c-8.17,7.9-18.03,13.66-27.57,19.24l-3,1.76 c-20.83,12.25-41.14,25.86-60.37,40.44C275.58,139.23,267.46,145.62,260.82,153.5L260.82,153.5z" fill="inherit"/></g><g id="change1_5"><path d="M214.4,226.26c-0.88,0-1.74-0.38-2.33-1.11c-0.95-1.17-0.89-2.86,0.15-3.95c15.8-16.72,26.37-25.67,43.69-31.3 c0,0,0,0,0,0c10.38-3.37,21.47-4.6,31.05-5.49c24.26-2.25,48.93-3.09,73.32-2.48l3.49,0.09c10.69,0.29,21.75,0.59,32.15-1.65 c10.13-2.19,19.71-6.81,27.7-13.35c1.21-0.99,2.96-0.89,4.05,0.23c1.09,1.11,1.14,2.88,0.12,4.05 c-11.74,13.6-26.75,24.35-43.41,31.11c-25,10.13-52.91,10.99-79.33,10.42c-2.19-0.05-4.39-0.1-6.59-0.16 c-23.02-0.59-46.82-1.2-67.98,7.16c-1.31,0.51-2.72,1.02-4.17,1.55c-3.69,1.33-7.51,2.71-10.34,4.45 C215.48,226.12,214.94,226.26,214.4,226.26z M257.77,195.61L257.77,195.61c-12.21,3.97-20.67,9.59-30.7,19.1 c0.41-0.15,0.82-0.31,1.21-0.46c22.29-8.81,46.72-8.19,70.34-7.58c2.19,0.06,4.38,0.11,6.57,0.16 c25.79,0.56,52.96-0.26,76.95-9.98c8.17-3.31,15.92-7.64,23.04-12.83c-2.61,0.89-5.28,1.64-7.98,2.22 c-11.11,2.39-22.53,2.08-33.58,1.78l-3.47-0.09c-24.16-0.6-48.59,0.23-72.62,2.46C277.84,191.28,267.56,192.42,257.77,195.61z" fill="inherit"/></g><g id="change1_9"><path d="M102.92,480.79c-0.92,0-1.8-0.42-2.38-1.17c-7.71-10.03-13.28-18.58-17.53-26.88v0C70.63,428.56,66.81,400.89,64.7,377 c-0.53-5.95-0.98-12.02-1.41-17.88c-1.44-19.33-2.92-39.33-7.39-58.37c-0.32-1.34,0.33-2.73,1.56-3.36 c1.23-0.63,2.73-0.34,3.63,0.71c20.1,23.19,33.21,45.71,40.09,68.86c7.86,26.46,7.31,54.28,5.95,75.56 c-0.7,10.94-1.03,21.18-1.02,31.31c0,1.44-0.06,2.83-0.19,4.24c-0.11,1.23-0.97,2.26-2.15,2.61 C103.48,480.75,103.2,480.79,102.92,480.79z M88.35,450c3.07,6,6.89,12.16,11.77,18.99c0.08-8.69,0.42-17.52,1.01-26.85 c1.33-20.78,1.88-47.91-5.71-73.47c-5.73-19.28-16-38.17-31.28-57.48c2.77,15.78,3.96,31.85,5.13,47.49 c0.43,5.84,0.88,11.88,1.41,17.8C72.73,399.78,76.44,426.74,88.35,450L88.35,450z" fill="inherit"/></g><g id="change1_1"><path d="M106.97,459.17c-0.28,0-0.56-0.04-0.84-0.12c-1.36-0.4-2.26-1.7-2.15-3.11c0.33-4.32,1.02-8.96,2.1-14.18c0,0,0,0,0,0 c2.39-11.46,5.24-20.62,8.98-28.83c9.73-21.39,26.69-38.36,43.09-54.76c17.01-17.01,34.6-34.61,43.35-56.76 c0.49-1.23,1.71-1.99,3.03-1.89c1.32,0.11,2.41,1.06,2.69,2.36c5.24,24.2-3.28,52.58-23.37,77.86 c-11.23,14.13-24.78,26.36-37.89,38.2c-6.8,6.14-13.83,12.48-20.41,18.99c-7.06,6.97-12.45,13.11-15.81,20.4 c-0.04,0.09-0.09,0.19-0.13,0.27C109.08,458.58,108.05,459.17,106.97,459.17z M202.66,313.21c-9.89,18.81-25.3,34.22-40.27,49.2 c-16.02,16.03-32.59,32.6-41.87,53c-3.52,7.74-6.23,16.42-8.51,27.32c2.91-3.58,6.12-6.91,9.32-10.07 c6.68-6.6,13.76-12.99,20.61-19.18c12.92-11.67,26.29-23.74,37.21-37.48C195.35,355.62,203.62,333.27,202.66,313.21z" fill="inherit"/></g><g id="change1_2"><path d="M113.62,395.6c-0.14,0-0.27-0.01-0.41-0.03c-1.38-0.19-2.44-1.3-2.58-2.68c-6.28-65.15,3.73-131.46,28.95-191.76 c0.57-1.36,2.04-2.1,3.47-1.76s2.4,1.68,2.29,3.15c-1.09,14.12-0.79,28.61-0.51,42.63c0.29,14.5,0.6,29.5-0.61,44.27 c-2.8,34.07-13.14,66.33-27.8,104.27C115.97,394.85,114.85,395.6,113.62,395.6z M138.6,220.1 c-18.49,50.66-26.38,105.03-23.04,158.94c11.95-32.17,20.26-60.52,22.68-90.12c1.19-14.46,0.88-29.3,0.59-43.65 C138.66,237,138.49,228.56,138.6,220.1z" fill="inherit"/></g><g id="change1_10"><path d="M141.78,322.46c-0.67,0-1.34-0.22-1.89-0.67c-1.12-0.9-1.43-2.47-0.76-3.74c3.87-7.26,9.71-14.52,18.37-22.83c0,0,0,0,0,0 c36.92-35.43,82.71-60.51,132.44-72.52c1.3-0.31,2.65,0.27,3.31,1.43c0.66,1.16,0.48,2.62-0.45,3.58 c-19.3,19.92-39.25,40.51-64.41,54.04c-10.37,5.58-22.33,10.11-33.89,14.48c-18.22,6.89-37.06,14.02-50.79,25.54 C143.15,322.23,142.47,322.46,141.78,322.46z M161.66,299.54c-2.85,2.74-5.37,5.34-7.6,7.86c11.84-6.77,25.23-11.84,38.31-16.79 c11.91-4.51,23.15-8.76,33.18-14.15c21.15-11.38,38.74-28.16,55.45-45.22C236.3,243.84,195.23,267.32,161.66,299.54L161.66,299.54 z" fill="inherit"/></g><g id="change1_8"><path d="M159.31,293.65c-0.21,0-0.42-0.02-0.63-0.07c-1.05-0.22-1.9-0.99-2.23-2.01c-1.85-5.72-2.61-12.2-2.19-18.73c0,0,0,0,0,0 c0.73-11.23,4.54-21.8,8.54-31.55c4.57-11.16,9.8-22.2,14.86-32.88c5.62-11.86,11.43-24.12,16.3-36.49 c9.03-22.9,12.42-72.86,12.45-73.36c0.1-1.51,1.3-2.71,2.81-2.8c1.5-0.09,2.85,0.95,3.13,2.44c0.53,2.8,12.81,68.97,4.55,101.53 c-10.03,39.54-42.06,78.16-55.37,92.92C160.96,293.3,160.15,293.65,159.31,293.65z M160.25,273.23 c-0.25,3.81-0.04,7.59,0.59,11.15c14.5-16.71,41.39-51.19,50.25-86.12c4.94-19.46,1.99-52.74-0.98-75.28 c-1.96,16.54-5.32,37.84-10.56,51.14c-4.95,12.55-10.8,24.91-16.46,36.86c-5.03,10.61-10.22,21.58-14.73,32.59 C164.55,252.85,160.93,262.87,160.25,273.23L160.25,273.23z" fill="inherit"/></g><g id="change1_12"><circle cx="674" cy="857" fill="inherit" r="9"/></g><g id="change1_7"><circle cx="733.35" cy="821.36" fill="inherit" r="9"/></g><g id="change1_6"><circle cx="785.61" cy="775.96" fill="inherit" r="9"/></g><g id="change1_3"><circle cx="829.19" cy="722.17" fill="inherit" r="9"/></g></g></svg>